# xmcd
#
# Track frame offsets:
# 150
# 19306
# 30270
# 71502
# 76971
# 107324
# 122551
# 131273
# 138512
# 224757
# 236371
# 246462
# 266561
# 273725
# 287177
#
# Disc length: 3994 seconds
#
#
# Revision: 0
# Processed by: cddbd v1.5.2PL0 Copyright (c) Steve Scherf et al.
# Submitted via: FreeRIP 2.96 
#
DISCID=db0f980f
DTITLE=Helge Schneider - Aprikose, Banane, Erdbeer CD2v3
DYEAR=2004
DGENRE=Speech
TTITLE0=20 Am Abend ging der Kommissar Schneider kegeln...
TTITLE1=21 Ich habe eine tolle Erfindung gemacht, deshalb bin ich auf der Flucht...
TTITLE2=22 Herr Kommissar, wir brauchen Sie. Im Dienst. Es geht nicht mehr...
TTITLE3=23 Er hatte sich in dem verlassenen Stollen eines ehemaligen Bergwerks...
TTITLE4=24 Was war denn das? Der Motror hustete. Spuckte Öl. Versiegte. Pött, pött...
TTITLE5=25 "Seid ihr alle da?" "Jaaaaaa!" riefen die Kinder...
TTITLE6=26 Wir haben jetzt eine Täter-Charakteristik, Herr Kommissar !
TTITLE7=27 Normalerweise wird der Müll an einem Feitag abgeholt...
TTITLE8=28 Das Büro des Kommissars war von einem Neuen belegt worden ...
TTITLE9=29 Wie lange habe Sie schon den Arm zerstört?
TTITLE10=30 Die Frau Kommissar Schneider lag in ihrem Bett...
TTITLE11=31 "Einmal Fasson, sehr kurz" versuchte sich der Kommissar sich dem Herrenfriseur ...
TTITLE12=32 Er hatte sich bei einem Fälscher einen falschen Pass besorgt...
TTITLE13=33 Frau Kommissar Schneider schaute auf ihre billige Armbanduhr...
TTITLE14=34 Es war zehn Uhr abends, die Straßen waren noch gut gefüllt...
EXTD=gelesen von Helge Schneider
EXTT0=
EXTT1=
EXTT2=
EXTT3=
EXTT4=
EXTT5=
EXTT6=
EXTT7=
EXTT8=
EXTT9=
EXTT10=
EXTT11=
EXTT12=
EXTT13=
EXTT14=
PLAYORDER=
